<svg width="16" height="16" viewBox="0 0 16 16" fill="none" xmlns="http://www.w3.org/2000/svg">
<mask id="mask0_2878_120" style="mask-type:alpha" maskUnits="userSpaceOnUse" x="0" y="0" width="16" height="16">
<rect width="16" height="16" fill="#D9D9D9"/>
</mask>
<g mask="url(#mask0_2878_120)">
<path d="M3.99998 11.3333C3.81109 11.3333 3.65276 11.2695 3.52498 11.1417C3.3972 11.0139 3.33331 10.8556 3.33331 10.6667V7.31668C3.33331 7.12779 3.3972 6.97223 3.52498 6.85001C3.65276 6.72779 3.81109 6.66668 3.99998 6.66668C4.18887 6.66668 4.3472 6.73057 4.47498 6.85834C4.60276 6.98612 4.66665 7.14445 4.66665 7.33334V10.6833C4.66665 10.8722 4.60276 11.0278 4.47498 11.15C4.3472 11.2722 4.18887 11.3333 3.99998 11.3333ZM7.99998 11.3333C7.81109 11.3333 7.65276 11.2695 7.52498 11.1417C7.3972 11.0139 7.33331 10.8556 7.33331 10.6667V7.31668C7.33331 7.12779 7.3972 6.97223 7.52498 6.85001C7.65276 6.72779 7.81109 6.66668 7.99998 6.66668C8.18887 6.66668 8.3472 6.73057 8.47498 6.85834C8.60276 6.98612 8.66665 7.14445 8.66665 7.33334V10.6833C8.66665 10.8722 8.60276 11.0278 8.47498 11.15C8.3472 11.2722 8.18887 11.3333 7.99998 11.3333ZM1.98331 14C1.79442 14 1.63887 13.9361 1.51665 13.8083C1.39442 13.6806 1.33331 13.5222 1.33331 13.3333C1.33331 13.1445 1.3972 12.9861 1.52498 12.8583C1.65276 12.7306 1.81109 12.6667 1.99998 12.6667H14.0166C14.2055 12.6667 14.3611 12.7306 14.4833 12.8583C14.6055 12.9861 14.6666 13.1445 14.6666 13.3333C14.6666 13.5222 14.6028 13.6806 14.475 13.8083C14.3472 13.9361 14.1889 14 14 14H1.98331ZM12 11.3333C11.8111 11.3333 11.6528 11.2695 11.525 11.1417C11.3972 11.0139 11.3333 10.8556 11.3333 10.6667V7.31668C11.3333 7.12779 11.3972 6.97223 11.525 6.85001C11.6528 6.72779 11.8111 6.66668 12 6.66668C12.1889 6.66668 12.3472 6.73057 12.475 6.85834C12.6028 6.98612 12.6666 7.14445 12.6666 7.33334V10.6833C12.6666 10.8722 12.6028 11.0278 12.475 11.15C12.3472 11.2722 12.1889 11.3333 12 11.3333ZM8.59998 0.966677L14.2166 3.76668C14.3611 3.84445 14.4722 3.95279 14.55 4.09168C14.6278 4.23057 14.6666 4.38334 14.6666 4.55001C14.6666 4.77223 14.5861 4.95834 14.425 5.10834C14.2639 5.25834 14.0722 5.33334 13.85 5.33334H2.16665C1.94442 5.33334 1.74998 5.25834 1.58331 5.10834C1.41665 4.95834 1.33331 4.77223 1.33331 4.55001C1.33331 4.39445 1.36942 4.24445 1.44165 4.10001C1.51387 3.95557 1.62776 3.85001 1.78331 3.78334L7.39998 0.966677C7.58887 0.877788 7.78887 0.833344 7.99998 0.833344C8.21109 0.833344 8.41109 0.877788 8.59998 0.966677Z" fill="#212121"/>
</g>
</svg>
