<svg width="16" height="16" viewBox="0 0 16 16" fill="none" xmlns="http://www.w3.org/2000/svg">
<path d="M6.875 14.888L0.275 8.288C0.175 8.188 0.104167 8.07967 0.0625 7.963C0.0208333 7.84633 0 7.72133 0 7.588C0 7.45467 0.0208333 7.32967 0.0625 7.213C0.104167 7.09633 0.175 6.988 0.275 6.888L6.875 0.288C7.05833 0.104667 7.2875 0.00883333 7.5625 0.0005C7.8375 -0.00783333 8.075 0.088 8.275 0.288C8.475 0.471333 8.57917 0.7005 8.5875 0.9755C8.59583 1.2505 8.5 1.488 8.3 1.688L3.4 6.588H14.575C14.8583 6.588 15.0958 6.68383 15.2875 6.8755C15.4792 7.06717 15.575 7.30467 15.575 7.588C15.575 7.87133 15.4792 8.10883 15.2875 8.3005C15.0958 8.49217 14.8583 8.588 14.575 8.588H3.4L8.3 13.488C8.48333 13.6713 8.57917 13.9047 8.5875 14.188C8.59583 14.4713 8.5 14.7047 8.3 14.888C8.11667 15.088 7.88333 15.188 7.6 15.188C7.31667 15.188 7.075 15.088 6.875 14.888Z" fill="#212121"/>
</svg>
