<svg width="16" height="16" viewBox="0 0 16 16" fill="none" xmlns="http://www.w3.org/2000/svg">
<mask id="mask0_1_775" style="mask-type:alpha" maskUnits="userSpaceOnUse" x="0" y="0" width="16" height="16">
<rect width="16" height="16" fill="#D9D9D9"/>
</mask>
<g mask="url(#mask0_1_775)">
<path d="M8 9C7.81111 9 7.65278 8.93611 7.525 8.80833C7.39722 8.68056 7.33333 8.52222 7.33333 8.33333C7.33333 8.14444 7.39722 7.98611 7.525 7.85833C7.65278 7.73056 7.81111 7.66667 8 7.66667C8.18889 7.66667 8.34722 7.73056 8.475 7.85833C8.60278 7.98611 8.66667 8.14444 8.66667 8.33333C8.66667 8.52222 8.60278 8.68056 8.475 8.80833C8.34722 8.93611 8.18889 9 8 9ZM5.33333 9C5.14444 9 4.98611 8.93611 4.85833 8.80833C4.73056 8.68056 4.66667 8.52222 4.66667 8.33333C4.66667 8.14444 4.73056 7.98611 4.85833 7.85833C4.98611 7.73056 5.14444 7.66667 5.33333 7.66667C5.52222 7.66667 5.68056 7.73056 5.80833 7.85833C5.93611 7.98611 6 8.14444 6 8.33333C6 8.52222 5.93611 8.68056 5.80833 8.80833C5.68056 8.93611 5.52222 9 5.33333 9ZM10.6667 9C10.4778 9 10.3194 8.93611 10.1917 8.80833C10.0639 8.68056 10 8.52222 10 8.33333C10 8.14444 10.0639 7.98611 10.1917 7.85833C10.3194 7.73056 10.4778 7.66667 10.6667 7.66667C10.8556 7.66667 11.0139 7.73056 11.1417 7.85833C11.2694 7.98611 11.3333 8.14444 11.3333 8.33333C11.3333 8.52222 11.2694 8.68056 11.1417 8.80833C11.0139 8.93611 10.8556 9 10.6667 9ZM8 11.6667C7.81111 11.6667 7.65278 11.6028 7.525 11.475C7.39722 11.3472 7.33333 11.1889 7.33333 11C7.33333 10.8111 7.39722 10.6528 7.525 10.525C7.65278 10.3972 7.81111 10.3333 8 10.3333C8.18889 10.3333 8.34722 10.3972 8.475 10.525C8.60278 10.6528 8.66667 10.8111 8.66667 11C8.66667 11.1889 8.60278 11.3472 8.475 11.475C8.34722 11.6028 8.18889 11.6667 8 11.6667ZM5.33333 11.6667C5.14444 11.6667 4.98611 11.6028 4.85833 11.475C4.73056 11.3472 4.66667 11.1889 4.66667 11C4.66667 10.8111 4.73056 10.6528 4.85833 10.525C4.98611 10.3972 5.14444 10.3333 5.33333 10.3333C5.52222 10.3333 5.68056 10.3972 5.80833 10.525C5.93611 10.6528 6 10.8111 6 11C6 11.1889 5.93611 11.3472 5.80833 11.475C5.68056 11.6028 5.52222 11.6667 5.33333 11.6667ZM10.6667 11.6667C10.4778 11.6667 10.3194 11.6028 10.1917 11.475C10.0639 11.3472 10 11.1889 10 11C10 10.8111 10.0639 10.6528 10.1917 10.525C10.3194 10.3972 10.4778 10.3333 10.6667 10.3333C10.8556 10.3333 11.0139 10.3972 11.1417 10.525C11.2694 10.6528 11.3333 10.8111 11.3333 11C11.3333 11.1889 11.2694 11.3472 11.1417 11.475C11.0139 11.6028 10.8556 11.6667 10.6667 11.6667ZM3.33333 14.3333C2.96667 14.3333 2.65278 14.2028 2.39167 13.9417C2.13056 13.6806 2 13.3667 2 13V3.66667C2 3.3 2.13056 2.98611 2.39167 2.725C2.65278 2.46389 2.96667 2.33333 3.33333 2.33333H4V1.66667C4 1.47778 4.06389 1.31944 4.19167 1.19167C4.31944 1.06389 4.47778 1 4.66667 1C4.85556 1 5.01389 1.06389 5.14167 1.19167C5.26944 1.31944 5.33333 1.47778 5.33333 1.66667V2.33333H10.6667V1.66667C10.6667 1.47778 10.7306 1.31944 10.8583 1.19167C10.9861 1.06389 11.1444 1 11.3333 1C11.5222 1 11.6806 1.06389 11.8083 1.19167C11.9361 1.31944 12 1.47778 12 1.66667V2.33333H12.6667C13.0333 2.33333 13.3472 2.46389 13.6083 2.725C13.8694 2.98611 14 3.3 14 3.66667V13C14 13.3667 13.8694 13.6806 13.6083 13.9417C13.3472 14.2028 13.0333 14.3333 12.6667 14.3333H3.33333ZM3.33333 13H12.6667V6.33333H3.33333V13Z" fill="#3B3B3B"/>
</g>
</svg>
