<svg width="40" height="40" viewBox="0 0 40 40" fill="none" xmlns="http://www.w3.org/2000/svg">
<mask id="mask0_2878_153" style="mask-type:alpha" maskUnits="userSpaceOnUse" x="0" y="0" width="40" height="40">
<rect width="40" height="40" fill="#D9D9D9"/>
</mask>
<g mask="url(#mask0_2878_153)">
<path d="M14.7636 13.8246L19.7195 4H20.2805L25.2364 13.8246H14.7636ZM18.5974 36L2.46753 16.6316H18.5974V36ZM21.4026 36V16.6316H37.5325L21.4026 36ZM28.3221 13.8246L23.4597 4H30.8C31.5169 4 32.1636 4.18713 32.7403 4.5614C33.3169 4.93567 33.7766 5.4347 34.1195 6.05848L38 13.8246H28.3221ZM2 13.8246L5.88052 6.05848C6.22338 5.4347 6.68312 4.93567 7.25974 4.5614C7.83636 4.18713 8.48312 4 9.2 4H16.5403L11.6779 13.8246H2Z" fill="#212121"/>
</g>
</svg>
