<svg width="16" height="16" viewBox="0 0 16 16" fill="none" xmlns="http://www.w3.org/2000/svg">
<mask id="mask0_2878_117" style="mask-type:alpha" maskUnits="userSpaceOnUse" x="0" y="0" width="16" height="16">
<rect width="16" height="16" fill="#D9D9D9"/>
</mask>
<g mask="url(#mask0_2878_117)">
<path d="M0.666667 12C0.477778 12 0.319444 11.9361 0.191667 11.8083C0.0638889 11.6806 0 11.5222 0 11.3333V10.95C0 10.4611 0.244444 10.0694 0.733333 9.775C1.22222 9.48056 1.86667 9.33333 2.66667 9.33333C2.81111 9.33333 2.94722 9.33889 3.075 9.35C3.20278 9.36111 3.32778 9.37778 3.45 9.4C3.29444 9.62222 3.18056 9.86111 3.10833 10.1167C3.03611 10.3722 3 10.6444 3 10.9333V12H0.666667ZM4.66667 12C4.47778 12 4.31944 11.9361 4.19167 11.8083C4.06389 11.6806 4 11.5222 4 11.3333V10.9333C4 10.2111 4.36944 9.625 5.10833 9.175C5.84722 8.725 6.81111 8.5 8 8.5C9.2 8.5 10.1667 8.725 10.9 9.175C11.6333 9.625 12 10.2111 12 10.9333V11.3333C12 11.5222 11.9361 11.6806 11.8083 11.8083C11.6806 11.9361 11.5222 12 11.3333 12H4.66667ZM13 12V10.9333C13 10.6444 12.9611 10.3722 12.8833 10.1167C12.8056 9.86111 12.6944 9.62222 12.55 9.4C12.6722 9.37778 12.7972 9.36111 12.925 9.35C13.0528 9.33889 13.1889 9.33333 13.3333 9.33333C14.1333 9.33333 14.7778 9.48056 15.2667 9.775C15.7556 10.0694 16 10.4611 16 10.95V11.3333C16 11.5222 15.9361 11.6806 15.8083 11.8083C15.6806 11.9361 15.5222 12 15.3333 12H13ZM2.66667 8.66667C2.3 8.66667 1.98611 8.53611 1.725 8.275C1.46389 8.01389 1.33333 7.7 1.33333 7.33333C1.33333 6.96667 1.46389 6.65278 1.725 6.39167C1.98611 6.13056 2.3 6 2.66667 6C3.03333 6 3.34722 6.13056 3.60833 6.39167C3.86944 6.65278 4 6.96667 4 7.33333C4 7.7 3.86944 8.01389 3.60833 8.275C3.34722 8.53611 3.03333 8.66667 2.66667 8.66667ZM13.3333 8.66667C12.9667 8.66667 12.6528 8.53611 12.3917 8.275C12.1306 8.01389 12 7.7 12 7.33333C12 6.96667 12.1306 6.65278 12.3917 6.39167C12.6528 6.13056 12.9667 6 13.3333 6C13.7 6 14.0139 6.13056 14.275 6.39167C14.5361 6.65278 14.6667 6.96667 14.6667 7.33333C14.6667 7.7 14.5361 8.01389 14.275 8.275C14.0139 8.53611 13.7 8.66667 13.3333 8.66667ZM8 8C7.44444 8 6.97222 7.80556 6.58333 7.41667C6.19444 7.02778 6 6.55556 6 6C6 5.44444 6.19444 4.97222 6.58333 4.58333C6.97222 4.19444 7.44444 4 8 4C8.55556 4 9.02778 4.19444 9.41667 4.58333C9.80556 4.97222 10 5.44444 10 6C10 6.55556 9.80556 7.02778 9.41667 7.41667C9.02778 7.80556 8.55556 8 8 8Z" fill="#212121"/>
</g>
</svg>
