<svg width="40" height="40" viewBox="0 0 40 40" fill="none" xmlns="http://www.w3.org/2000/svg">
<mask id="mask0_2878_144" style="mask-type:alpha" maskUnits="userSpaceOnUse" x="0" y="0" width="40" height="40">
<rect width="40" height="40" fill="#D9D9D9"/>
</mask>
<g mask="url(#mask0_2878_144)">
<path d="M9.99984 35C9.08317 35 8.29845 34.6736 7.64567 34.0208C6.99289 33.3681 6.6665 32.5833 6.6665 31.6667V16.6667C6.6665 16.1389 6.78456 15.6389 7.02067 15.1667C7.25678 14.6945 7.58317 14.3056 7.99984 14L17.9998 6.50001C18.3054 6.27779 18.6248 6.11112 18.9582 6.00001C19.2915 5.8889 19.6387 5.83334 19.9998 5.83334C20.3609 5.83334 20.7082 5.8889 21.0415 6.00001C21.3748 6.11112 21.6943 6.27779 21.9998 6.50001L31.9998 14C32.4165 14.3056 32.7429 14.6945 32.979 15.1667C33.2151 15.6389 33.3332 16.1389 33.3332 16.6667V31.6667C33.3332 32.5833 33.0068 33.3681 32.354 34.0208C31.7012 34.6736 30.9165 35 29.9998 35H23.3332V23.3333H16.6665V35H9.99984Z" fill="#212121"/>
</g>
</svg>
