<svg width="16" height="16" viewBox="0 0 16 16" fill="none" xmlns="http://www.w3.org/2000/svg">
<mask id="mask0_2878_114" style="mask-type:alpha" maskUnits="userSpaceOnUse" x="0" y="0" width="16" height="16">
<rect width="16" height="16" fill="#D9D9D9"/>
</mask>
<g mask="url(#mask0_2878_114)">
<path d="M6.61669 4.93333L3.68335 6.71666C3.46113 6.84999 3.23613 6.85277 3.00835 6.72499C2.78058 6.59722 2.66669 6.40555 2.66669 6.14999C2.66669 6.02777 2.69446 5.91388 2.75002 5.80833C2.80558 5.70277 2.88335 5.62222 2.98335 5.56666L6.66669 3.33333L10 5.69999L12.2834 4.08333C12.5056 3.92777 12.7361 3.91111 12.975 4.03333C13.2139 4.15555 13.3334 4.34999 13.3334 4.61666C13.3334 4.72777 13.3084 4.83333 13.2584 4.93333C13.2084 5.03333 13.1389 5.11111 13.05 5.16666L10 7.33333L6.61669 4.93333ZM3.33335 9.99999C3.14446 9.99999 2.98613 9.93611 2.85835 9.80833C2.73058 9.68055 2.66669 9.52222 2.66669 9.33333C2.66669 9.14444 2.73058 8.98611 2.85835 8.85833C2.98613 8.73055 3.14446 8.66666 3.33335 8.66666H12.6667C12.8556 8.66666 13.0139 8.73055 13.1417 8.85833C13.2695 8.98611 13.3334 9.14444 13.3334 9.33333C13.3334 9.52222 13.2695 9.68055 13.1417 9.80833C13.0139 9.93611 12.8556 9.99999 12.6667 9.99999H3.33335ZM3.33335 12.6667C3.14446 12.6667 2.98613 12.6028 2.85835 12.475C2.73058 12.3472 2.66669 12.1889 2.66669 12C2.66669 11.8111 2.73058 11.6528 2.85835 11.525C2.98613 11.3972 3.14446 11.3333 3.33335 11.3333H12.6667C12.8556 11.3333 13.0139 11.3972 13.1417 11.525C13.2695 11.6528 13.3334 11.8111 13.3334 12C13.3334 12.1889 13.2695 12.3472 13.1417 12.475C13.0139 12.6028 12.8556 12.6667 12.6667 12.6667H3.33335Z" fill="#249990"/>
</g>
</svg>
