<svg width="40" height="40" viewBox="0 0 40 40" fill="none" xmlns="http://www.w3.org/2000/svg">
<mask id="mask0_2878_150" style="mask-type:alpha" maskUnits="userSpaceOnUse" x="0" y="0" width="40" height="40">
<rect width="40" height="40" fill="#D9D9D9"/>
</mask>
<g mask="url(#mask0_2878_150)">
<path d="M4 32C3.43333 32 2.95833 31.8083 2.575 31.425C2.19167 31.0417 2 30.5667 2 30C2 29.4333 2.19167 28.9583 2.575 28.575C2.95833 28.1917 3.43333 28 4 28H36C36.5667 28 37.0417 28.1917 37.425 28.575C37.8083 28.9583 38 29.4333 38 30C38 30.5667 37.8083 31.0417 37.425 31.425C37.0417 31.8083 36.5667 32 36 32H4ZM4 22C3.43333 22 2.95833 21.8083 2.575 21.425C2.19167 21.0417 2 20.5667 2 20C2 19.4333 2.19167 18.9583 2.575 18.575C2.95833 18.1917 3.43333 18 4 18H36C36.5667 18 37.0417 18.1917 37.425 18.575C37.8083 18.9583 38 19.4333 38 20C38 20.5667 37.8083 21.0417 37.425 21.425C37.0417 21.8083 36.5667 22 36 22H4ZM4 12C3.43333 12 2.95833 11.8083 2.575 11.425C2.19167 11.0417 2 10.5667 2 10C2 9.43333 2.19167 8.95833 2.575 8.575C2.95833 8.19167 3.43333 8 4 8H36C36.5667 8 37.0417 8.19167 37.425 8.575C37.8083 8.95833 38 9.43333 38 10C38 10.5667 37.8083 11.0417 37.425 11.425C37.0417 11.8083 36.5667 12 36 12H4Z" fill="#212121"/>
</g>
</svg>
