<svg width="12" height="12" viewBox="0 0 12 12" fill="none" xmlns="http://www.w3.org/2000/svg">
<path d="M10.8409 11.8122L7.02273 7.98862C6.68182 8.26173 6.28977 8.47795 5.84659 8.63727C5.40341 8.79659 4.93182 8.87624 4.43182 8.87624C3.19318 8.87624 2.14489 8.44666 1.28693 7.58748C0.428977 6.72831 0 5.67852 0 4.43812C0 3.19772 0.428977 2.14794 1.28693 1.28876C2.14489 0.429587 3.19318 0 4.43182 0C5.67045 0 6.71875 0.429587 7.5767 1.28876C8.43466 2.14794 8.86364 3.19772 8.86364 4.43812C8.86364 4.93883 8.78409 5.41109 8.625 5.85491C8.46591 6.29872 8.25 6.69132 7.97727 7.03272L11.8125 10.8734C11.9375 10.9986 12 11.1522 12 11.3343C12 11.5164 11.9318 11.6757 11.7955 11.8122C11.6705 11.9374 11.5114 12 11.3182 12C11.125 12 10.9659 11.9374 10.8409 11.8122ZM4.43182 7.51067C5.28409 7.51067 6.00852 7.21195 6.60511 6.61451C7.2017 6.01707 7.5 5.29161 7.5 4.43812C7.5 3.58464 7.2017 2.85917 6.60511 2.26174C6.00852 1.6643 5.28409 1.36558 4.43182 1.36558C3.57955 1.36558 2.85511 1.6643 2.25852 2.26174C1.66193 2.85917 1.36364 3.58464 1.36364 4.43812C1.36364 5.29161 1.66193 6.01707 2.25852 6.61451C2.85511 7.21195 3.57955 7.51067 4.43182 7.51067Z" fill="#708090"/>
</svg>
