<svg width="32" height="32" viewBox="0 0 32 32" fill="none" xmlns="http://www.w3.org/2000/svg">
<mask id="mask0_2384_339" style="mask-type:alpha" maskUnits="userSpaceOnUse" x="0" y="0" width="32" height="32">
<rect width="32" height="32" fill="#D9D9D9"/>
</mask>
<g mask="url(#mask0_2384_339)">
<path d="M6.66659 25.3333C6.28881 25.3333 5.97214 25.2055 5.71659 24.95C5.46103 24.6944 5.33325 24.3778 5.33325 24C5.33325 23.6222 5.46103 23.3055 5.71659 23.05C5.97214 22.7944 6.28881 22.6667 6.66659 22.6667H7.99992V13.3333C7.99992 11.4889 8.55547 9.84999 9.66659 8.41666C10.7777 6.98332 12.2221 6.04443 13.9999 5.59999V4.66666C13.9999 4.1111 14.1944 3.63888 14.5833 3.24999C14.9721 2.8611 15.4444 2.66666 15.9999 2.66666C16.5555 2.66666 17.0277 2.8611 17.4166 3.24999C17.8055 3.63888 17.9999 4.1111 17.9999 4.66666V5.59999C19.7777 6.04443 21.2221 6.98332 22.3333 8.41666C23.4444 9.84999 23.9999 11.4889 23.9999 13.3333V22.6667H25.3333C25.711 22.6667 26.0277 22.7944 26.2833 23.05C26.5388 23.3055 26.6666 23.6222 26.6666 24C26.6666 24.3778 26.5388 24.6944 26.2833 24.95C26.0277 25.2055 25.711 25.3333 25.3333 25.3333H6.66659ZM15.9999 29.3333C15.2666 29.3333 14.6388 29.0722 14.1166 28.55C13.5944 28.0278 13.3333 27.4 13.3333 26.6667H18.6666C18.6666 27.4 18.4055 28.0278 17.8833 28.55C17.361 29.0722 16.7333 29.3333 15.9999 29.3333Z" fill="#3B3B3B"/>
</g>
</svg>
